<svg width="300" height="300" viewBox="0 0 300 300" fill="none" xmlns="http://www.w3.org/2000/svg">
<circle cx="150" cy="150" r="150" fill="black"/>
<path d="M180.443 153.516L181.209 95.3613C181.209 84.1161 190.325 75 201.57 75C212.816 75 221.932 84.1161 221.932 95.3613V202.729C221.932 208.602 219.658 213.945 215.943 217.924C211.878 222.278 206.087 225 199.661 225C199.661 225 221.932 202.729 180.443 153.516ZM180.443 153.516L155.235 217.924L119.553 146.484M119.553 146.484L118.787 204.639C118.787 215.884 109.671 225 98.4258 225C87.1805 225 78.0645 215.884 78.0645 204.639V97.2713C78.0645 91.3977 80.3381 86.0553 84.0534 82.076C88.1184 77.722 93.9092 75 100.336 75C100.336 75 78.0645 97.2713 119.553 146.484Z" stroke="#008080" stroke-width="8"/>
</svg>
